<?xml version="1.0" standalone="no"?>
<!DOCTYPE svg PUBLIC "-//W3C//DTD SVG 20010904//EN"
 "http://www.w3.org/TR/2001/REC-SVG-20010904/DTD/svg10.dtd">
<svg version="1.0" xmlns="http://www.w3.org/2000/svg"
 width="512.000000pt" height="512.000000pt" viewBox="0 0 512.000000 512.000000"
 preserveAspectRatio="xMidYMid meet">

<g transform="translate(0.000000,512.000000) scale(0.100000,-0.100000)"
fill="#000000" stroke="none">
<path d="M4730 5104 c-248 -48 -556 -259 -933 -641 l-108 -110 -262 79 c-144
43 -285 85 -313 93 l-52 15 21 40 c76 155 -37 339 -208 340 -77 0 -137 -35
-239 -138 l-89 -90 -46 15 c-25 9 -47 17 -49 18 -2 1 5 21 14 44 25 63 15 161
-23 214 -45 65 -99 98 -171 104 -94 9 -138 -13 -249 -120 l-92 -89 -374 111
c-206 61 -385 111 -398 111 -16 0 -57 -34 -141 -118 -131 -131 -139 -149 -90
-201 15 -16 441 -331 947 -701 506 -370 923 -675 928 -679 4 -4 -122 -156
-280 -337 -158 -181 -406 -468 -551 -639 -145 -170 -269 -314 -276 -319 -9 -6
-107 27 -290 97 -153 59 -289 107 -304 107 -20 0 -56 -29 -159 -133 -119 -119
-133 -136 -133 -167 0 -33 37 -72 588 -623 550 -549 589 -587 622 -587 31 0
48 14 167 133 104 103 133 139 133 159 0 15 -48 151 -107 304 -70 183 -103
281 -97 290 5 7 150 132 323 279 172 147 454 389 625 538 171 150 318 277 327
284 13 11 25 -1 79 -75 92 -126 108 -142 146 -142 37 0 74 38 74 75 0 13 -38
75 -86 140 -82 113 -85 118 -67 135 10 9 110 100 223 202 113 102 266 242 340
311 74 69 138 123 141 119 3 -4 165 -540 358 -1191 l353 -1184 -50 -49 -49
-49 -474 648 c-261 356 -487 662 -503 680 -21 25 -36 33 -61 33 -41 0 -79 -41
-73 -80 4 -27 1000 -1397 1049 -1442 52 -49 70 -41 201 90 85 85 118 125 118
142 0 13 -50 192 -111 397 l-112 373 90 93 c107 111 129 155 120 249 -6 72
-39 126 -105 172 -54 38 -148 48 -213 22 -23 -9 -43 -16 -44 -14 -1 2 -9 24
-18 49 l-15 46 90 89 c57 56 99 108 114 139 95 199 -117 406 -315 308 l-41
-20 -20 66 c-10 36 -52 177 -93 313 l-74 247 110 108 c345 341 535 602 618
848 32 95 33 229 3 296 -50 108 -141 168 -266 174 -40 2 -84 1 -98 -1z m156
-165 c61 -29 89 -89 80 -171 -14 -142 -131 -350 -325 -583 -291 -348 -1578
-1509 -2860 -2579 l-213 -179 -65 66 -66 65 179 213 c1070 1282 2231 2569
2579 2860 161 134 309 231 433 283 119 50 192 57 258 25z m-2512 -351 c649
-193 1184 -354 1188 -357 4 -3 -50 -67 -119 -141 -69 -74 -209 -227 -311 -340
-102 -113 -193 -213 -202 -223 -16 -18 -55 9 -929 649 l-912 667 48 49 c26 26
49 48 51 48 3 0 536 -158 1186 -352z m-70 327 c33 -31 35 -79 3 -117 l-22 -28
-87 27 c-49 15 -88 30 -88 33 0 4 24 30 54 59 63 59 97 66 140 26z m622 -169
c40 -33 39 -86 -2 -126 l-30 -30 -83 25 c-47 14 -87 27 -89 30 -8 7 66 83 103
106 40 25 68 24 101 -5z m1832 -1832 c26 -29 28 -54 8 -92 -17 -32 -103 -118
-111 -111 -3 3 -16 43 -30 89 l-25 84 22 24 c45 48 96 51 136 6z m166 -620
c41 -42 35 -76 -25 -140 -29 -30 -55 -54 -59 -54 -3 0 -18 39 -33 88 l-27 87
28 22 c37 31 83 30 116 -3z m-3565 -234 c121 -46 221 -87 221 -90 0 -8 -239
-294 -248 -298 -4 -1 -84 74 -177 168 l-170 170 70 70 c38 39 72 69 76 68 3
-2 106 -41 228 -88z m714 -717 l87 -228 -70 -70 -70 -70 -170 170 c-94 93
-169 173 -168 177 4 9 290 248 298 248 3 0 44 -102 93 -227z"/>
<path d="M675 4591 c-55 -34 -663 -654 -670 -683 -7 -26 8 -66 29 -80 6 -4 27
-8 46 -8 32 0 57 23 372 338 321 320 338 339 338 374 0 28 -6 42 -26 57 -33
26 -51 26 -89 2z"/>
<path d="M1015 4280 c-11 -5 -116 -105 -234 -223 -188 -189 -214 -219 -214
-247 0 -42 32 -73 74 -72 29 1 59 27 253 221 192 193 219 223 219 251 0 50
-54 89 -98 70z"/>
<path d="M1414 4035 c-16 -7 -95 -80 -176 -162 -118 -119 -148 -155 -148 -177
0 -63 47 -96 103 -72 39 17 312 292 322 324 18 60 -43 112 -101 87z"/>
<path d="M3975 1491 c-47 -29 -305 -297 -306 -317 -4 -61 22 -94 74 -94 26 0
53 22 180 148 82 81 155 160 162 176 16 38 3 79 -31 95 -34 15 -44 14 -79 -8z"/>
<path d="M4240 1103 c-8 -3 -113 -103 -232 -222 -204 -201 -218 -218 -218
-252 0 -45 28 -72 72 -71 28 1 60 29 252 221 192 193 219 223 219 251 0 47
-52 87 -93 73z"/>
<path d="M4208 443 c-318 -318 -338 -340 -338 -374 0 -46 25 -69 76 -69 38 0
48 9 371 333 225 225 334 341 339 360 10 43 -22 81 -71 85 -38 3 -40 1 -377
-335z"/>
</g>
</svg>
